<?xml version="1.0" encoding="utf-8"?>
<!-- Generator: Adobe Illustrator 17.0.0, SVG Export Plug-In . SVG Version: 6.00 Build 0)  -->
<!DOCTYPE svg PUBLIC "-//W3C//DTD SVG 1.1//EN" "http://www.w3.org/Graphics/SVG/1.1/DTD/svg11.dtd">
<svg version="1.1" id="Layer_1" xmlns="http://www.w3.org/2000/svg" xmlns:xlink="http://www.w3.org/1999/xlink" x="0px" y="0px"
	 width="605.033px" height="500px" viewBox="0 0 605.033 500" enable-background="new 0 0 605.033 500" xml:space="preserve">
<g>
	<rect x="0.95" fill="#00A1E0" width="604.082" height="505.534"/>
	<g>
		<!--<g>
			<g>
				<path fill="#B3EFFF" d="M583.55,152.973c-0.811-0.401-1.759-0.635-2.772-0.635h-4.492c0.064-0.397,0.114-0.799,0.141-1.207
					c0.022-0.287,0.03-0.577,0.03-0.872c0-7.651-6.595-13.853-14.731-13.853c-1.309,0-2.579,0.161-3.785,0.46
					c-0.299-1.527-0.047-17.564-20.325-17.564c-10.411,0-18.907,8.195-19.392,18.487c-0.392-0.031-0.787-0.052-1.188-0.052
					c-7.565,0-13.731,5.633-14.014,12.683c-0.004,0.165-0.009,0.335-0.009,0.504c0,0.477,0.029,0.948,0.082,1.412h-4.654
					c-0.291,0-0.581,0.02-0.86,0.056c-1.134,0.151-2.151,0.595-2.934,1.227c-0.968,0.793-1.574,1.888-1.574,3.088
					c0,2.404,2.413,4.374,5.367,4.374h9.648h12.671h5.222h26.548h4.119h14.272h9.856c1.473,0,2.817-0.493,3.789-1.286
					s1.578-1.888,1.578-3.088C586.144,155.13,585.103,153.739,583.55,152.973z"/>
			</g>
			<g>
				<path fill="#B3EFFF" d="M101.263,137.733c-0.684-0.338-1.483-0.535-2.336-0.535h-3.785c0.054-0.335,0.096-0.673,0.119-1.017
					c0.018-0.242,0.025-0.486,0.025-0.735c0-6.448-5.558-11.674-12.414-11.674c-1.103,0-2.173,0.136-3.189,0.388
					c-0.252-1.287-0.04-14.801-17.128-14.801c-8.774,0-15.933,6.906-16.342,15.579c-0.331-0.026-0.664-0.043-1.001-0.043
					c-6.375,0-11.571,4.747-11.81,10.688c-0.004,0.139-0.007,0.282-0.007,0.425c0,0.402,0.025,0.799,0.069,1.19h-3.922
					c-0.245,0-0.49,0.017-0.724,0.047c-0.955,0.127-1.812,0.502-2.472,1.034c-0.816,0.668-1.326,1.591-1.326,2.602
					c0,2.026,2.034,3.686,4.523,3.686h8.13H48.35h4.401h22.372h3.471h12.027h8.306c1.241,0,2.374-0.416,3.193-1.084
					c0.82-0.668,1.33-1.591,1.33-2.602C103.45,139.551,102.573,138.378,101.263,137.733z"/>
			</g>
			<g>
				<path fill="#B3EFFF" d="M165.643,80.19c-0.444-0.22-0.963-0.348-1.518-0.348h-2.46c0.035-0.218,0.063-0.437,0.077-0.661
					c0.012-0.157,0.016-0.316,0.016-0.477c0-4.189-3.611-7.585-8.065-7.585c-0.717,0-1.412,0.088-2.072,0.252
					c-0.164-0.836-0.026-9.617-11.129-9.617c-5.701,0-10.352,4.487-10.618,10.122c-0.215-0.017-0.431-0.028-0.65-0.028
					c-4.142,0-7.518,3.084-7.673,6.944c-0.002,0.091-0.005,0.183-0.005,0.276c0,0.261,0.016,0.519,0.045,0.773h-2.548
					c-0.159,0-0.318,0.011-0.471,0.031c-0.621,0.083-1.178,0.326-1.606,0.672c-0.53,0.434-0.862,1.034-0.862,1.691
					c0,1.316,1.321,2.395,2.939,2.395h5.283h6.938h2.859h14.536h2.255h7.814h5.397c0.806,0,1.542-0.27,2.075-0.704
					c0.532-0.434,0.864-1.034,0.864-1.691C167.063,81.371,166.493,80.609,165.643,80.19z"/>
			</g>
			<g>
				<path fill="#B3EFFF" d="M501.578,89.483c-0.557-0.276-1.208-0.436-1.904-0.436h-3.085c0.044-0.273,0.078-0.549,0.097-0.829
					c0.015-0.197,0.021-0.396,0.021-0.599c0-5.254-4.529-9.513-10.115-9.513c-0.899,0-1.771,0.111-2.599,0.316
					c-0.206-1.049-0.033-12.061-13.957-12.061c-7.149,0-12.983,5.628-13.316,12.695c-0.269-0.021-0.541-0.035-0.816-0.035
					c-5.195,0-9.429,3.868-9.623,8.709c-0.003,0.114-0.006,0.23-0.006,0.346c0,0.328,0.02,0.651,0.056,0.97h-3.196
					c-0.199,0-0.399,0.014-0.59,0.038c-0.779,0.104-1.477,0.409-2.015,0.842c-0.665,0.544-1.081,1.296-1.081,2.12
					c0,1.651,1.657,3.004,3.685,3.004h6.625h8.701h3.586h18.23h2.829h9.8h6.768c1.011,0,1.934-0.339,2.602-0.883
					c0.668-0.544,1.084-1.296,1.084-2.121C503.36,90.964,502.645,90.009,501.578,89.483z"/>
			</g>
		</g>-->
		<g>
			<g opacity="0.18">
				<path d="M554.859,426.684h-8.256c1.333-0.906,2.438-1.759,3.221-2.491c2.533-2.368,3.992-5.582,4.109-9.048
					c0.116-3.466-1.124-6.77-3.493-9.303c-2.446-2.616-5.903-4.116-9.486-4.116c-3.303,0-6.451,1.243-8.865,3.5
					c-2.15,2.01-5.761,6.879-8.516,11.996c-2.755-5.117-6.366-9.986-8.516-11.996c-2.414-2.257-5.562-3.5-8.865-3.5
					c-3.583,0-7.04,1.5-9.486,4.116c-4.889,5.229-4.613,13.462,0.616,18.351c0.783,0.732,1.888,1.585,3.221,2.491h-8.257
					c-2.264,0-4.106,1.842-4.106,4.106v15.362c0,2.264,1.842,4.106,4.106,4.106h0.615c-0.444,0.656-0.704,1.446-0.704,2.296v35.452
					c0,2.264,1.842,4.107,4.107,4.107h54.536c2.264,0,4.106-1.842,4.106-4.107v-35.452c0-0.85-0.26-1.64-0.704-2.296h0.615
					c2.264,0,4.107-1.842,4.107-4.106V430.79C558.966,428.526,557.123,426.684,554.859,426.684z M532.289,419.532
					c1.641-2.827,3.582-5.34,4.576-6.269c0.859-0.803,1.948-1.246,3.067-1.246c1.057,0,2.014,0.401,2.696,1.13
					c1.45,1.551,1.225,4.127-0.503,5.742c-1.986,1.857-9.009,5.898-12.133,6.069C530.102,424.138,530.625,422.398,532.289,419.532z
					 M504.519,413.148c0.681-0.729,1.638-1.13,2.695-1.13c1.119,0,2.208,0.442,3.067,1.246c0.994,0.929,2.935,3.442,4.576,6.269
					c1.664,2.866,2.186,4.606,2.297,5.426c-3.124-0.171-10.147-4.212-12.133-6.069c-0.859-0.804-1.374-1.861-1.449-2.978
					C503.502,414.857,503.838,413.876,504.519,413.148z"/>
				<path d="M481.93,442.503h-5.974c0.964-0.656,1.764-1.273,2.33-1.802c1.833-1.714,2.888-4.038,2.973-6.546
					c0.084-2.508-0.813-4.898-2.527-6.731c-1.77-1.893-4.271-2.978-6.863-2.978c-2.39,0-4.668,0.899-6.414,2.532
					c-1.556,1.454-4.168,4.977-6.162,8.679c-1.993-3.702-4.606-7.225-6.161-8.679c-1.746-1.633-4.024-2.532-6.414-2.532
					c-2.592,0-5.094,1.086-6.863,2.978c-3.537,3.784-3.337,9.74,0.446,13.277c0.566,0.53,1.366,1.147,2.331,1.802h-5.974
					c-1.638,0-2.971,1.333-2.971,2.971v11.115c0,1.638,1.333,2.971,2.971,2.971h0.445c-0.321,0.475-0.509,1.046-0.509,1.661v25.65
					c0,1.638,1.333,2.971,2.971,2.971h39.457c1.638,0,2.971-1.333,2.971-2.971v-25.65c0-0.615-0.188-1.187-0.509-1.661h0.445
					c1.638,0,2.971-1.333,2.971-2.971v-11.115C484.901,443.836,483.568,442.503,481.93,442.503z M465.6,437.329
					c1.187-2.045,2.592-3.864,3.311-4.536c0.621-0.581,1.409-0.901,2.219-0.901c0.765,0,1.457,0.29,1.95,0.818
					c1.049,1.122,0.886,2.986-0.364,4.154c-1.437,1.344-6.518,4.267-8.779,4.391C464.018,440.661,464.397,439.402,465.6,437.329z
					 M445.509,432.709c0.493-0.527,1.185-0.818,1.95-0.818c0.81,0,1.598,0.32,2.219,0.901c0.719,0.672,2.123,2.49,3.311,4.536
					c1.204,2.074,1.582,3.333,1.662,3.926c-2.26-0.124-7.341-3.047-8.779-4.391c-0.622-0.581-0.994-1.346-1.048-2.154
					C444.773,433.947,445.016,433.236,445.509,432.709z"/>
				<path d="M593.899,452.8h-4.244c0.685-0.466,1.253-0.904,1.656-1.28c1.302-1.218,2.052-2.869,2.112-4.651
					c0.06-1.782-0.578-3.48-1.795-4.782c-1.257-1.345-3.034-2.116-4.876-2.116c-1.698,0-3.316,0.639-4.557,1.799
					c-1.105,1.033-2.961,3.536-4.378,6.166c-1.416-2.63-3.272-5.133-4.378-6.166c-1.241-1.16-2.859-1.799-4.557-1.799
					c-1.842,0-3.619,0.771-4.876,2.116c-2.513,2.688-2.371,6.92,0.317,9.433c0.403,0.376,0.971,0.815,1.656,1.28h-4.244
					c-1.164,0-2.111,0.947-2.111,2.111v7.897c0,1.164,0.947,2.111,2.111,2.111h0.316c-0.228,0.337-0.362,0.743-0.362,1.18v18.224
					c0,1.164,0.947,2.111,2.111,2.111h28.034c1.164,0,2.111-0.947,2.111-2.111v-18.224c0-0.437-0.133-0.843-0.362-1.18h0.316
					c1.164,0,2.111-0.947,2.111-2.111v-7.897C596.01,453.747,595.063,452.8,593.899,452.8z M582.297,449.124
					c0.843-1.453,1.841-2.745,2.352-3.223c0.441-0.413,1.002-0.64,1.577-0.64c0.543,0,1.035,0.206,1.386,0.581
					c0.745,0.797,0.63,2.121-0.258,2.952c-1.021,0.955-4.631,3.031-6.237,3.12C581.173,451.492,581.442,450.597,582.297,449.124z
					 M568.022,445.842c0.35-0.375,0.842-0.581,1.386-0.581c0.575,0,1.135,0.227,1.577,0.64c0.511,0.478,1.509,1.769,2.352,3.223
					c0.855,1.473,1.124,2.368,1.181,2.789c-1.606-0.088-5.216-2.165-6.237-3.12c-0.442-0.413-0.706-0.957-0.745-1.531
					C567.499,446.721,567.672,446.217,568.022,445.842z"/>
				<circle cx="445.984" cy="399.261" r="1.862"/>
				<circle cx="604.172" cy="466.355" r="1.861"/>
				<circle cx="583.986" cy="390.828" r="1.862"/>
				<circle cx="424.4" cy="457.551" r="1.861"/>
				<circle cx="442.292" cy="415.519" r="1.862"/>
				<circle cx="584.733" cy="426.311" r="1.862"/>
				<circle cx="522.436" cy="401.726" r="1.137"/>
				<circle cx="578.954" cy="408.841" r="1.137"/>
				<circle cx="474.385" cy="396.995" r="1.137"/>
				<circle cx="562.902" cy="398.611" r="1.862"/>
				<circle cx="427.315" cy="472.669" r="2.676"/>
				<circle cx="595.725" cy="406.572" r="2.676"/>
				<circle cx="484.901" cy="408.149" r="2.676"/>
				<circle cx="427.475" cy="399.671" r="2.676"/>
				<circle cx="562.902" cy="412.503" r="2.342"/>
				<circle cx="429.246" cy="435.046" r="2.341"/>
				<circle cx="543.683" cy="398.612" r="1.646"/>
				<circle cx="567.252" cy="426.027" r="2.881"/>
				<circle cx="466.432" cy="407.283" r="4.888"/>
			</g>
			<g>
				<g>
					<g>
						<path fill="#FFFFFF" d="M553.859,424.684h-8.256c1.333-0.906,2.438-1.759,3.221-2.491c2.533-2.368,3.992-5.582,4.109-9.048
							c0.116-3.466-1.124-6.77-3.493-9.303c-2.446-2.616-5.903-4.116-9.486-4.116c-3.303,0-6.451,1.243-8.865,3.5
							c-2.15,2.01-5.761,6.879-8.516,11.996c-2.755-5.117-6.366-9.986-8.516-11.996c-2.414-2.257-5.562-3.5-8.865-3.5
							c-3.583,0-7.04,1.5-9.486,4.116c-4.889,5.229-4.613,13.462,0.616,18.351c0.783,0.732,1.888,1.585,3.221,2.491h-8.257
							c-2.264,0-4.106,1.842-4.106,4.106v15.362c0,2.264,1.842,4.106,4.106,4.106h0.615c-0.444,0.656-0.704,1.446-0.704,2.296
							v35.452c0,2.264,1.842,4.107,4.107,4.107h54.536c2.264,0,4.106-1.842,4.106-4.107v-35.452c0-0.85-0.26-1.64-0.704-2.296h0.615
							c2.264,0,4.107-1.842,4.107-4.106V428.79C557.966,426.526,556.123,424.684,553.859,424.684z M531.289,417.532
							c1.641-2.827,3.582-5.34,4.576-6.269c0.859-0.803,1.948-1.246,3.067-1.246c1.057,0,2.014,0.401,2.696,1.13
							c1.45,1.551,1.225,4.127-0.503,5.742c-1.986,1.857-9.009,5.898-12.133,6.069C529.102,422.138,529.625,420.398,531.289,417.532
							z M503.519,411.148c0.681-0.729,1.638-1.13,2.695-1.13c1.119,0,2.208,0.442,3.067,1.246c0.994,0.929,2.935,3.442,4.576,6.269
							c1.664,2.866,2.186,4.606,2.297,5.426c-3.124-0.171-10.147-4.212-12.133-6.069c-0.859-0.804-1.374-1.861-1.449-2.978
							C502.502,412.857,502.838,411.876,503.519,411.148z"/>
						<path fill="#FFFFFF" d="M480.93,440.503h-5.974c0.964-0.656,1.764-1.273,2.33-1.802c1.833-1.714,2.888-4.038,2.973-6.546
							c0.084-2.508-0.813-4.898-2.527-6.731c-1.77-1.893-4.271-2.978-6.863-2.978c-2.39,0-4.668,0.899-6.414,2.532
							c-1.556,1.454-4.168,4.977-6.162,8.679c-1.993-3.702-4.606-7.225-6.161-8.679c-1.746-1.633-4.024-2.532-6.414-2.532
							c-2.592,0-5.094,1.086-6.863,2.978c-3.537,3.784-3.337,9.74,0.446,13.277c0.566,0.53,1.366,1.147,2.331,1.802h-5.974
							c-1.638,0-2.971,1.333-2.971,2.971v11.115c0,1.638,1.333,2.971,2.971,2.971h0.445c-0.321,0.475-0.509,1.046-0.509,1.661v25.65
							c0,1.638,1.333,2.971,2.971,2.971h39.457c1.638,0,2.971-1.333,2.971-2.971v-25.65c0-0.615-0.188-1.187-0.509-1.661h0.445
							c1.638,0,2.971-1.333,2.971-2.971v-11.115C483.901,441.836,482.568,440.503,480.93,440.503z M464.6,435.329
							c1.187-2.045,2.592-3.864,3.311-4.536c0.621-0.581,1.409-0.901,2.219-0.901c0.765,0,1.457,0.29,1.95,0.818
							c1.049,1.122,0.886,2.986-0.364,4.154c-1.437,1.344-6.518,4.267-8.779,4.391C463.018,438.661,463.397,437.402,464.6,435.329z
							 M444.509,430.709c0.493-0.527,1.185-0.818,1.95-0.818c0.81,0,1.598,0.32,2.219,0.901c0.719,0.672,2.123,2.49,3.311,4.536
							c1.204,2.074,1.582,3.333,1.662,3.926c-2.26-0.124-7.341-3.047-8.779-4.391c-0.622-0.581-0.994-1.346-1.048-2.154
							C443.773,431.947,444.016,431.236,444.509,430.709z"/>
						<path fill="#FFFFFF" d="M592.899,450.8h-4.244c0.685-0.466,1.253-0.904,1.656-1.28c1.302-1.218,2.052-2.869,2.112-4.651
							c0.06-1.782-0.578-3.48-1.795-4.782c-1.257-1.345-3.034-2.116-4.876-2.116c-1.698,0-3.316,0.639-4.557,1.799
							c-1.105,1.033-2.961,3.536-4.378,6.166c-1.416-2.63-3.272-5.133-4.378-6.166c-1.241-1.16-2.859-1.799-4.557-1.799
							c-1.842,0-3.619,0.771-4.876,2.116c-2.513,2.688-2.371,6.92,0.317,9.433c0.403,0.376,0.971,0.815,1.656,1.28h-4.244
							c-1.164,0-2.111,0.947-2.111,2.111v7.897c0,1.164,0.947,2.111,2.111,2.111h0.316c-0.228,0.337-0.362,0.743-0.362,1.18v18.224
							c0,1.164,0.947,2.111,2.111,2.111h28.034c1.164,0,2.111-0.947,2.111-2.111v-18.224c0-0.437-0.133-0.843-0.362-1.18h0.316
							c1.164,0,2.111-0.947,2.111-2.111v-7.897C595.01,451.747,594.063,450.8,592.899,450.8z M581.297,447.124
							c0.843-1.453,1.841-2.745,2.352-3.223c0.441-0.413,1.002-0.64,1.577-0.64c0.543,0,1.035,0.206,1.386,0.581
							c0.745,0.797,0.63,2.121-0.258,2.952c-1.021,0.955-4.631,3.031-6.237,3.12C580.173,449.492,580.442,448.597,581.297,447.124z
							 M567.022,443.842c0.35-0.375,0.842-0.581,1.386-0.581c0.575,0,1.135,0.227,1.577,0.64c0.511,0.478,1.509,1.769,2.352,3.223
							c0.855,1.473,1.124,2.368,1.181,2.789c-1.606-0.088-5.216-2.165-6.237-3.12c-0.442-0.413-0.706-0.957-0.745-1.531
							C566.499,444.721,566.672,444.217,567.022,443.842z"/>
					</g>
					<g>
						<circle fill="#FFFFFF" cx="444.984" cy="397.261" r="1.862"/>
						<circle fill="#FFFFFF" cx="603.172" cy="464.355" r="1.861"/>
						<circle fill="#FFFFFF" cx="582.986" cy="388.828" r="1.862"/>
						<circle fill="#FFFFFF" cx="423.4" cy="455.551" r="1.861"/>
						<circle fill="#FFFFFF" cx="441.292" cy="413.519" r="1.862"/>
						<circle fill="#FFFFFF" cx="583.733" cy="424.311" r="1.862"/>
						<circle fill="#FFFFFF" cx="521.436" cy="399.726" r="1.137"/>
						<circle fill="#FFFFFF" cx="577.954" cy="406.841" r="1.137"/>
						<circle fill="#FFFFFF" cx="473.385" cy="394.995" r="1.137"/>
						<circle fill="#FFFFFF" cx="561.902" cy="396.611" r="1.862"/>
						<circle fill="#FFFFFF" cx="426.315" cy="470.669" r="2.676"/>
						<circle fill="#FFFFFF" cx="594.725" cy="404.572" r="2.676"/>
						<circle fill="#FFFFFF" cx="483.901" cy="406.149" r="2.676"/>
						<circle fill="#FFFFFF" cx="426.475" cy="397.671" r="2.676"/>
						<circle fill="#FFFFFF" cx="561.902" cy="410.503" r="2.342"/>
						<circle fill="#FFFFFF" cx="428.246" cy="433.046" r="2.341"/>
						<circle fill="#FFFFFF" cx="542.683" cy="396.612" r="1.646"/>
						<circle fill="#FFFFFF" cx="566.252" cy="424.027" r="2.881"/>
						<circle fill="#FFFFFF" cx="465.432" cy="405.283" r="4.888"/>
					</g>
				</g>
			</g>
		</g>
		<g>
			<g>
				<g>
					<circle fill="#79AA33" cx="407.982" cy="482.574" r="12.39"/>
					<circle fill="#79AA33" cx="424.999" cy="485.159" r="9.804"/>
					<circle fill="#79AA33" cx="393.062" cy="485.53" r="9.434"/>
				</g>
				<path fill="#638E1E" d="M404.058,475.861c0.222,1.33,1.37,2.347,2.763,2.347s2.541-1.017,2.763-2.347H404.058z"/>
				<path fill="#638E1E" d="M390.639,478.869c0.212,1.276,1.314,2.251,2.65,2.251s2.438-0.975,2.65-2.251H390.639z"/>
			</g>
			<g>
				<g>
					<circle fill="#79AA33" cx="193.494" cy="485.407" r="15.731"/>
					<circle fill="#79AA33" cx="173.754" cy="486.992" r="11.101"/>
				</g>
				<path fill="#638E1E" d="M186.813,474.62c0.222,1.33,1.37,2.347,2.763,2.347s2.541-1.017,2.763-2.347H186.813z"/>
				<path fill="#638E1E" d="M195.397,478.046c0.222,1.33,1.37,2.347,2.763,2.347s2.541-1.017,2.763-2.347H195.397z"/>
				<path fill="#638E1E" d="M170.701,478.536c0.231,1.388,1.429,2.449,2.883,2.449s2.651-1.061,2.883-2.449H170.701z"/>
			</g>
			<g>
				<g>
					<circle fill="#79AA33" cx="118.642" cy="486.51" r="14.628"/>
					<circle fill="#79AA33" cx="96.961" cy="484.171" r="16.967"/>
					<circle fill="#79AA33" cx="75.738" cy="485.773" r="12.151"/>
				</g>
				<path fill="#638E1E" d="M112.175,477.859c0.231,1.388,1.429,2.449,2.883,2.449s2.651-1.061,2.883-2.449H112.175z"/>
				<path fill="#638E1E" d="M120.407,475.266c0.231,1.388,1.429,2.449,2.883,2.449s2.651-1.061,2.883-2.449H120.407z"/>
				<path fill="#638E1E" d="M89.115,472.446c0.231,1.388,1.429,2.449,2.883,2.449s2.651-1.061,2.883-2.449H89.115z"/>
				<path fill="#638E1E" d="M83.984,477.746c0.231,1.388,1.429,2.449,2.883,2.449s2.651-1.061,2.883-2.449H83.984z"/>
				<path fill="#638E1E" d="M71.523,478.987c0.231,1.388,1.429,2.449,2.883,2.449s2.651-1.061,2.883-2.449H71.523z"/>
			</g>
			<g>
				<g>
					<circle fill="#79AA33" cx="20.578" cy="484.219" r="13.705"/>
					<circle fill="#79AA33" cx="43.949" cy="486.389" r="11.535"/>
				</g>
				<path fill="#638E1E" d="M41.865,478.31c0.231,1.388,1.429,2.449,2.883,2.449s2.651-1.061,2.883-2.449H41.865z"/>
				<path fill="#638E1E" d="M25.12,475.125c0.231,1.388,1.429,2.449,2.883,2.449s2.651-1.061,2.883-2.449H25.12z"/>
				<path fill="#638E1E" d="M19.566,478.592c0.231,1.388,1.429,2.449,2.883,2.449s2.651-1.061,2.883-2.449H19.566z"/>
				<path fill="#638E1E" d="M10.826,476.027c0.231,1.388,1.429,2.449,2.883,2.449s2.651-1.061,2.883-2.449H10.826z"/>
			</g>
			<g>
				<g>
					<circle fill="#79AA33" cx="276.812" cy="487.792" r="13.346"/>
					<circle fill="#79AA33" cx="294.112" cy="482.333" r="18.805"/>
					<circle fill="#79AA33" cx="314.818" cy="487.507" r="13.631"/>
					<circle fill="#79AA33" cx="330.467" cy="485.728" r="11.351"/>
				</g>
				<g>
					<path fill="#638E1E" d="M279.62,477.045c0.222,1.33,1.37,2.347,2.763,2.347s2.541-1.017,2.763-2.347H279.62z"/>
					<path fill="#638E1E" d="M288.979,471.632c0.222,1.33,1.37,2.347,2.763,2.347s2.541-1.017,2.763-2.347H288.979z"/>
					<path fill="#638E1E" d="M311.194,477.721c0.222,1.33,1.37,2.347,2.763,2.347s2.541-1.017,2.763-2.347H311.194z"/>
					<path fill="#638E1E" d="M329.237,477.609c0.221,1.33,1.37,2.347,2.763,2.347s2.541-1.017,2.763-2.347H329.237z"/>
				</g>
			</g>
			<g>
				<g>
					<g>
						<circle fill="#79AA33" cx="501.884" cy="487.039" r="14.1"/>
						<circle fill="#79AA33" cx="479.936" cy="484.121" r="17.017"/>
					</g>
					<g>
						<circle fill="#79AA33" cx="534.863" cy="488.654" r="12.484"/>
						<circle fill="#79AA33" cx="551.046" cy="483.547" r="17.592"/>
						<circle fill="#79AA33" cx="570.416" cy="488.387" r="12.752"/>
					</g>
				</g>
				<g>
					<path fill="#638E1E" d="M558.576,476.791c0.222,1.33,1.37,2.347,2.763,2.347s2.541-1.017,2.763-2.347H558.576z"/>
					<path fill="#638E1E" d="M546.82,469.433c0.222,1.33,1.37,2.347,2.763,2.347s2.541-1.017,2.763-2.347H546.82z"/>
					<path fill="#638E1E" d="M537.602,477.806c0.222,1.33,1.37,2.347,2.763,2.347s2.541-1.017,2.763-2.347H537.602z"/>
					<path fill="#638E1E" d="M499.036,477.806c0.222,1.33,1.37,2.347,2.763,2.347s2.541-1.017,2.763-2.347H499.036z"/>
					<path fill="#638E1E" d="M480.006,471.378c0.222,1.33,1.37,2.347,2.763,2.347s2.541-1.017,2.763-2.347H480.006z"/>
					<path fill="#638E1E" d="M486.096,477.045c0.222,1.33,1.37,2.347,2.763,2.347s2.541-1.017,2.763-2.347H486.096z"/>
					<path fill="#638E1E" d="M549.611,476.114c0.222,1.33,1.37,2.347,2.763,2.347s2.541-1.017,2.763-2.347H549.611z"/>
				</g>
			</g>
			<g>
				<g>
					<polygon fill="#787563" points="90.647,500.462 79.013,500.462 83.082,430.565 86.578,430.565 					"/>
					<g>
						<path fill="#D7D2BB" d="M86.756,428.163c0.927-2.826,1.536-7.599,1.536-13.012c0-8.678-3.497-22.587-3.497-22.587
							s-3.497,13.909-3.497,22.587c0,5.413,0.609,10.186,1.536,13.012H86.756z"/>
						<path fill="#D7D2BB" d="M81.445,430.672c-2.891,0.603-7.295,2.458-11.944,5.165c-7.453,4.339-17.651,14.347-17.651,14.347
							s13.695-3.901,21.148-8.24c4.649-2.707,8.445-5.625,10.408-7.848L81.445,430.672z"/>
						<path fill="#D7D2BB" d="M86.255,434.055c1.963,2.222,5.758,5.141,10.408,7.848c7.453,4.339,21.148,8.24,21.148,8.24
							s-10.198-10.008-17.651-14.347c-4.649-2.707-9.054-4.561-11.944-5.165L86.255,434.055z"/>
						<ellipse fill="#787563" cx="84.796" cy="430.124" rx="4.913" ry="4.954"/>
					</g>
				</g>
				<g>
					<rect x="26.028" y="463.415" fill="#B79030" width="8.458" height="27.577"/>
					<g>
						<ellipse fill="#95CF50" cx="30.257" cy="452.766" rx="19.699" ry="19.859"/>
						<g>
							<path fill="#79AA33" d="M39.736,457.823c0.169,1.37,1.335,2.433,2.752,2.433c1.416,0,2.582-1.061,2.752-2.433H39.736z"/>
							<path fill="#79AA33" d="M14.957,449.205c0.173,1.402,1.366,2.488,2.814,2.488c1.449,0,2.641-1.086,2.814-2.488H14.957z"/>
							<path fill="#79AA33" d="M22.81,441.163c0.165,1.34,1.304,2.377,2.688,2.377c1.384,0,2.523-1.038,2.688-2.377H22.81z"/>
							<path fill="#79AA33" d="M27.691,452.165c0.165,1.34,1.304,2.377,2.688,2.377c1.384,0,2.523-1.038,2.689-2.377H27.691z"/>
							<path fill="#79AA33" d="M34.236,442.168c0.165,1.339,1.304,2.376,2.688,2.376c1.384,0,2.523-1.038,2.688-2.376H34.236z"/>
							<path fill="#79AA33" d="M39.533,448.629c0.165,1.34,1.304,2.377,2.688,2.377c1.384,0,2.523-1.038,2.689-2.377H39.533z"/>
							<path fill="#79AA33" d="M19.462,460.162c0.165,1.34,1.304,2.377,2.688,2.377s2.523-1.038,2.688-2.377H19.462z"/>
							<path fill="#79AA33" d="M29.038,464.211c0.165,1.339,1.304,2.376,2.688,2.376c1.384,0,2.523-1.038,2.689-2.376H29.038z"/>
						</g>
					</g>
				</g>
				<g>
					<rect x="243.293" y="466.295" fill="#B79030" width="7.575" height="24.697"/>
					<g>
						<ellipse fill="#95CF50" cx="247.08" cy="456.758" rx="17.642" ry="17.785"/>
						<g>
							<path fill="#79AA33" d="M255.57,461.287c0.152,1.228,1.195,2.178,2.464,2.178s2.313-0.951,2.464-2.178H255.57z"/>
							<path fill="#79AA33" d="M233.379,453.569c0.155,1.256,1.223,2.228,2.52,2.228c1.297,0,2.366-0.973,2.52-2.228H233.379z"/>
							<path fill="#79AA33" d="M240.411,446.367c0.148,1.199,1.168,2.129,2.408,2.129s2.26-0.929,2.407-2.129H240.411z"/>
							<path fill="#79AA33" d="M244.783,456.22c0.148,1.199,1.168,2.129,2.407,2.129s2.26-0.929,2.408-2.129H244.783z"/>
							<path fill="#79AA33" d="M250.644,447.267c0.148,1.199,1.168,2.129,2.407,2.129s2.26-0.929,2.407-2.129H250.644z"/>
							<path fill="#79AA33" d="M255.389,453.053c0.148,1.199,1.168,2.129,2.407,2.129s2.26-0.929,2.408-2.129H255.389z"/>
							<path fill="#79AA33" d="M237.412,463.382c0.148,1.199,1.168,2.129,2.407,2.129s2.26-0.929,2.407-2.129H237.412z"/>
							<path fill="#79AA33" d="M245.99,467.008c0.148,1.199,1.168,2.129,2.407,2.129c1.239,0,2.26-0.929,2.408-2.129H245.99z"/>
						</g>
					</g>
				</g>
				<g>
					<rect x="408.681" y="468.037" fill="#B79030" width="7.041" height="22.955"/>
					<g>
						<ellipse fill="#95CF50" cx="412.201" cy="459.174" rx="16.397" ry="16.53"/>
						<g>
							<path fill="#79AA33" d="M420.091,463.383c0.141,1.141,1.111,2.024,2.29,2.024s2.15-0.884,2.29-2.024H420.091z"/>
							<path fill="#79AA33" d="M399.466,456.21c0.144,1.167,1.136,2.071,2.342,2.071s2.199-0.904,2.342-2.071H399.466z"/>
							<path fill="#79AA33" d="M406.003,449.516c0.137,1.115,1.086,1.979,2.238,1.979c1.152,0,2.1-0.863,2.238-1.979H406.003z"/>
							<path fill="#79AA33" d="M410.066,458.673c0.137,1.114,1.086,1.979,2.238,1.979c1.152,0,2.1-0.863,2.238-1.979H410.066z"/>
							<path fill="#79AA33" d="M415.514,450.352c0.137,1.114,1.086,1.979,2.238,1.979c1.152,0,2.1-0.863,2.238-1.979H415.514z"/>
							<path fill="#79AA33" d="M419.923,455.73c0.138,1.114,1.086,1.979,2.238,1.979s2.1-0.863,2.238-1.979H419.923z"/>
							<path fill="#79AA33" d="M403.215,465.33c0.138,1.114,1.086,1.979,2.238,1.979c1.152,0,2.1-0.863,2.238-1.979H403.215z"/>
							<path fill="#79AA33" d="M411.187,468.701c0.137,1.114,1.086,1.979,2.238,1.979c1.152,0,2.1-0.863,2.238-1.979H411.187z"/>
						</g>
					</g>
				</g>
				<g>
					<g>
						<polygon fill="#E8E3CC" points="205.714,461.53 205.714,455.193 192.825,461.343 192.825,455.193 179.571,461.517 
							179.003,444.939 170.583,444.939 168.999,491.104 178.243,491.104 180.586,491.104 191.133,491.104 192.825,491.104 
							204.412,491.104 205.714,491.104 218.994,491.104 218.994,455.193 						"/>
						<rect x="184.419" y="467.184" fill="#787563" width="4.155" height="5.839"/>
						<rect x="184.419" y="478.027" fill="#787563" width="4.155" height="5.839"/>
						<rect x="197.452" y="467.184" fill="#787563" width="4.155" height="5.839"/>
						<rect x="197.452" y="478.027" fill="#787563" width="4.155" height="5.839"/>
						<rect x="210.613" y="467.184" fill="#787563" width="4.155" height="5.839"/>
						<rect x="210.613" y="478.027" fill="#787563" width="4.155" height="5.839"/>
					</g>
					<path fill="#95CF50" d="M170.148,442.891c0,0-7.635-0.771-9.486-5.167c-3.521-8.362-10.951-10.103-10.951-10.103
						s26.299-7.481,25.193,15.116c0,0-4.01-6.17-8.123-8.33C166.78,434.407,170.764,439.394,170.148,442.891z"/>
					<path fill="#95CF50" d="M179.94,442.12c0,0,5.989-0.605,7.441-4.054c2.762-6.56,8.59-7.925,8.59-7.925
						s-20.63-5.868-19.763,11.858c0,0,3.146-4.84,6.372-6.534C182.582,435.465,179.456,439.377,179.94,442.12z"/>
				</g>
				<g>
					<g>
						<g>
							<rect x="280.048" y="472.238" fill="#B79030" width="5.752" height="18.754"/>
						</g>
						<path fill="#95CF50" d="M285.399,432.713l11.764,40.065c0.479,1.631-0.757,3.261-2.474,3.261H271.16
							c-1.717,0-2.954-1.63-2.474-3.261l11.764-40.065C281.17,430.262,284.679,430.262,285.399,432.713z"/>
					</g>
					<path fill="#79AA33" d="M280.696,439.018c0.103,1.19,1.12,2.129,2.374,2.129s2.271-0.938,2.374-2.129H280.696z"/>
					<path fill="#79AA33" d="M276.624,454.101c0.103,1.19,1.12,2.129,2.374,2.129c1.254,0,2.271-0.938,2.374-2.129H276.624z"/>
					<path fill="#79AA33" d="M281.529,446.976c0.103,1.19,1.12,2.129,2.374,2.129s2.271-0.938,2.374-2.129H281.529z"/>
					<path fill="#79AA33" d="M285.415,459.746c0.103,1.19,1.12,2.128,2.374,2.128s2.271-0.938,2.374-2.128H285.415z"/>
					<path fill="#79AA33" d="M275.977,464.928c0.103,1.19,1.12,2.129,2.374,2.129s2.271-0.938,2.374-2.129H275.977z"/>
					<path fill="#79AA33" d="M281.529,471.498c0.103,1.19,1.12,2.129,2.374,2.129s2.271-0.938,2.374-2.129H281.529z"/>
				</g>
				<g>
					<g>
						<g>
							<rect x="313.732" y="473.529" fill="#B79030" width="4.902" height="15.983"/>
						</g>
						<path fill="#95CF50" d="M318.291,439.844l10.026,34.144c0.408,1.39-0.646,2.779-2.108,2.779h-20.052
							c-1.463,0-2.517-1.389-2.109-2.779l10.026-34.144C314.687,437.756,317.678,437.756,318.291,439.844z"/>
					</g>
					<path fill="#79AA33" d="M313.945,471.868c0.103,1.19,1.12,2.129,2.374,2.129s2.271-0.938,2.374-2.129H313.945z"/>
					<path fill="#79AA33" d="M319.359,464.326c0.103,1.19,1.12,2.129,2.374,2.129s2.271-0.938,2.374-2.129H319.359z"/>
					<path fill="#79AA33" d="M308.393,466.871c0.103,1.19,1.12,2.129,2.374,2.129s2.271-0.938,2.374-2.129H308.393z"/>
					<path fill="#79AA33" d="M311.262,459.607c0.103,1.19,1.12,2.129,2.374,2.129s2.271-0.938,2.374-2.129H311.262z"/>
					<path fill="#79AA33" d="M315.703,453.592c0.103,1.19,1.12,2.129,2.374,2.129s2.271-0.938,2.374-2.129H315.703z"/>
					<path fill="#79AA33" d="M313.714,445.958c0.103,1.19,1.12,2.129,2.374,2.129s2.271-0.938,2.374-2.129H313.714z"/>
				</g>
				<g>
					<g>
						<g>
							<rect x="127.535" y="473.529" fill="#B79030" width="4.902" height="15.983"/>
						</g>
						<path fill="#95CF50" d="M132.095,439.844l10.026,34.144c0.408,1.39-0.646,2.779-2.109,2.779H119.96
							c-1.463,0-2.517-1.389-2.108-2.779l10.026-34.144C128.491,437.756,131.482,437.756,132.095,439.844z"/>
					</g>
					<path fill="#79AA33" d="M127.749,471.868c0.103,1.19,1.12,2.129,2.374,2.129s2.271-0.938,2.374-2.129H127.749z"/>
					<path fill="#79AA33" d="M133.162,464.326c0.103,1.19,1.12,2.129,2.374,2.129s2.271-0.938,2.374-2.129H133.162z"/>
					<path fill="#79AA33" d="M122.197,466.871c0.103,1.19,1.12,2.129,2.374,2.129c1.254,0,2.271-0.938,2.374-2.129H122.197z"/>
					<path fill="#79AA33" d="M125.066,459.607c0.103,1.19,1.12,2.129,2.374,2.129c1.254,0,2.271-0.938,2.374-2.129H125.066z"/>
					<path fill="#79AA33" d="M129.507,453.592c0.103,1.19,1.12,2.129,2.374,2.129s2.271-0.938,2.374-2.129H129.507z"/>
					<path fill="#79AA33" d="M127.517,445.958c0.103,1.19,1.12,2.129,2.374,2.129c1.254,0,2.271-0.938,2.374-2.129H127.517z"/>
				</g>
				<g>
					<g>
						<polygon fill="#BCB5A2" points="382.188,494.524 354.361,494.524 354.361,445.296 374.772,445.296 						"/>
						<polygon fill="#BCB5A2" points="374.772,445.296 358.355,455.649 390.948,455.649 						"/>
						<polygon fill="#ECE9E0" points="358.355,455.649 351.839,455.661 351.839,494.525 390.966,494.525 390.966,455.661 
							390.948,455.649 						"/>
						<polygon fill="#ECE9E0" points="370.556,455.661 354.361,445.296 337.926,455.661 337.926,494.525 370.556,494.525 						"/>
					</g>
					<g>
						<rect x="375.011" y="461.397" fill="#787563" width="4.494" height="5.58"/>
						<rect x="382.87" y="461.397" fill="#787563" width="4.494" height="5.58"/>
						<rect x="375.011" y="469.707" fill="#787563" width="4.494" height="5.58"/>
						<rect x="382.87" y="469.707" fill="#787563" width="4.494" height="5.58"/>
						<rect x="375.011" y="477.471" fill="#787563" width="4.494" height="5.581"/>
						<rect x="382.87" y="477.471" fill="#787563" width="4.494" height="5.581"/>
					</g>
					<g>
						<rect x="345.723" y="461.397" fill="#787563" width="4.494" height="5.58"/>
						<rect x="353.582" y="461.397" fill="#787563" width="4.494" height="5.58"/>
						<rect x="345.723" y="469.707" fill="#787563" width="4.494" height="5.58"/>
						<rect x="353.582" y="469.707" fill="#787563" width="4.494" height="5.58"/>
						<rect x="345.723" y="477.471" fill="#787563" width="4.494" height="5.581"/>
						<rect x="353.582" y="477.471" fill="#787563" width="4.494" height="5.581"/>
					</g>
				</g>
			</g>
			<g>
				<polygon fill="#7EBE00" points="605.05,485.025 605.036,485.015 605.036,485.007 605.024,485.007 600.168,481.742 
					596.1,484.477 592.033,481.742 587.966,484.477 583.898,481.742 579.831,484.477 575.763,481.742 571.696,484.477 
					567.629,481.742 563.561,484.477 559.494,481.742 555.427,484.477 551.359,481.742 547.292,484.477 543.224,481.742 
					539.157,484.477 535.09,481.742 531.022,484.477 526.955,481.742 522.887,484.477 518.82,481.742 514.753,484.477 
					510.685,481.742 506.618,484.477 502.55,481.742 498.483,484.477 494.416,481.742 490.348,484.477 486.281,481.742 
					482.214,484.477 478.146,481.742 474.079,484.477 470.011,481.742 465.944,484.477 461.877,481.742 457.809,484.477 
					453.742,481.742 449.675,484.477 445.607,481.742 441.54,484.477 437.472,481.742 433.405,484.477 429.338,481.742 
					425.27,484.477 421.203,481.742 417.136,484.477 413.068,481.742 409.001,484.477 404.933,481.742 400.866,484.477 
					396.799,481.742 392.731,484.477 388.664,481.742 384.596,484.477 380.529,481.742 376.462,484.477 372.394,481.742 
					368.327,484.477 364.26,481.742 360.192,484.477 356.125,481.742 352.057,484.477 347.99,481.742 343.923,484.477 
					339.855,481.742 335.788,484.477 331.721,481.742 327.653,484.477 323.586,481.742 319.518,484.477 315.451,481.742 
					311.384,484.477 307.316,481.742 303,484.644 298.684,481.742 294.616,484.477 290.549,481.742 286.482,484.477 
					282.414,481.742 278.347,484.477 274.279,481.742 270.212,484.477 266.145,481.742 262.077,484.477 258.01,481.742 
					253.943,484.477 249.875,481.742 245.808,484.477 241.74,481.742 237.673,484.477 233.606,481.742 229.538,484.477 
					225.471,481.742 221.404,484.477 217.336,481.742 213.269,484.477 209.201,481.742 205.134,484.477 201.067,481.742 
					196.999,484.477 192.932,481.742 188.865,484.477 184.797,481.742 180.73,484.477 176.662,481.742 172.595,484.477 
					168.528,481.742 164.46,484.477 160.393,481.742 156.325,484.477 152.258,481.742 148.191,484.477 144.123,481.742 
					140.056,484.477 135.989,481.742 131.921,484.477 127.854,481.742 123.786,484.477 119.719,481.742 115.652,484.477 
					111.584,481.742 107.517,484.477 103.45,481.742 99.382,484.477 95.315,481.742 91.247,484.477 87.18,481.742 83.113,484.477 
					79.045,481.742 74.978,484.477 70.91,481.742 66.843,484.477 62.776,481.742 58.708,484.477 54.641,481.742 50.574,484.477 
					46.506,481.742 42.439,484.477 38.371,481.742 34.304,484.477 30.237,481.742 26.169,484.477 22.102,481.742 18.035,484.477 
					13.967,481.742 9.9,484.477 5.832,481.742 0.976,485.007 0.95,485.007 0.95,506.551 605.036,506.551 605.036,485.025 				"/>
				<rect x="0.95" y="489.869" fill="#A7DB28" width="604.087" height="16.682"/>
				<rect x="0.95" y="499.568" fill="#C3E84D" width="604.087" height="6.983"/>
				<rect x="0.95" y="505.254" fill="#C3E84D" width="604.082" height="18.28"/>
			</g>
		</g>
		<g>
			<g opacity="0.35">
				<path fill="#B3EFFF" d="M438.289,166.366h4.685c1.27,0.177,2.25,1.257,2.25,2.574c0,1.443-1.167,2.61-2.61,2.61h23.225
					c-1.443,0-2.61-1.167-2.61-2.61c0-1.317,0.979-2.397,2.25-2.574h7.934c1.442,0,2.61-1.169,2.61-2.61
					c0-1.442-1.169-2.61-2.61-2.61H438.29c-1.442,0-2.61,1.169-2.61,2.61C435.679,165.197,436.847,166.366,438.289,166.366z"/>
				<path fill="#B3EFFF" d="M474.432,181.946h-13.07c-1.037-0.345-1.788-1.312-1.788-2.466c0-1.44,1.167-2.61,2.61-2.61H445
					c1.443,0,2.61,1.17,2.61,2.61c0,1.154-0.751,2.12-1.788,2.466h-16.35c-1.442,0-2.61,1.169-2.61,2.611s1.169,2.61,2.61,2.61
					h44.96c1.442,0,2.61-1.169,2.61-2.61C477.042,183.114,475.874,181.946,474.432,181.946z"/>
				<path fill="#B3EFFF" d="M492.027,171.561h-70.332c-1.442,0-2.61,1.169-2.61,2.61c0,1.442,1.169,2.61,2.61,2.61h70.332
					c1.442,0,2.61-1.169,2.61-2.61C494.638,172.73,493.469,171.561,492.027,171.561z"/>
			</g>
			<g opacity="0.35">
				<path fill="#B3EFFF" d="M393.163,70.274h2.727c0.74,0.103,1.31,0.732,1.31,1.498c0,0.84-0.679,1.52-1.52,1.52h13.519
					c-0.84,0-1.519-0.68-1.519-1.52c0-0.767,0.57-1.395,1.31-1.498h4.618c0.839,0,1.52-0.68,1.52-1.52c0-0.839-0.68-1.52-1.52-1.52
					h-20.444c-0.839,0-1.519,0.68-1.519,1.52C391.644,69.594,392.324,70.274,393.163,70.274z"/>
				<path fill="#B3EFFF" d="M414.201,79.343h-7.608c-0.604-0.201-1.041-0.764-1.041-1.435c0-0.839,0.679-1.519,1.519-1.519H397.07
					c0.84,0,1.519,0.681,1.519,1.519c0,0.672-0.437,1.234-1.041,1.435h-9.517c-0.839,0-1.52,0.68-1.52,1.52
					c0,0.839,0.68,1.52,1.52,1.52h26.171c0.839,0,1.52-0.68,1.52-1.52C415.721,80.023,415.04,79.343,414.201,79.343z"/>
				<path fill="#B3EFFF" d="M424.443,73.298h-40.939c-0.839,0-1.52,0.68-1.52,1.52c0,0.839,0.68,1.52,1.52,1.52h40.939
					c0.839,0,1.52-0.68,1.52-1.52C425.963,73.978,425.282,73.298,424.443,73.298z"/>
			</g>
			<g opacity="0.35">
				<path fill="#B3EFFF" d="M46.828,74.787h3.133c0.849,0.118,1.504,0.84,1.504,1.721c0,0.965-0.781,1.745-1.745,1.745h15.529
					c-0.965,0-1.745-0.781-1.745-1.745c0-0.881,0.655-1.603,1.504-1.721h5.305c0.964,0,1.745-0.781,1.745-1.745
					s-0.782-1.745-1.745-1.745H46.828c-0.964,0-1.745,0.781-1.745,1.745S45.864,74.787,46.828,74.787z"/>
				<path fill="#B3EFFF" d="M70.995,85.204h-8.739c-0.693-0.231-1.196-0.877-1.196-1.649c0-0.963,0.781-1.745,1.745-1.745h-11.49
					c0.965,0,1.745,0.782,1.745,1.745c0,0.772-0.502,1.418-1.196,1.649H40.932c-0.964,0-1.745,0.782-1.745,1.746
					c0,0.964,0.781,1.745,1.745,1.745h30.063c0.964,0,1.745-0.781,1.745-1.745S71.959,85.204,70.995,85.204z"/>
				<path fill="#B3EFFF" d="M82.76,78.26H35.732c-0.964,0-1.745,0.781-1.745,1.745s0.781,1.745,1.745,1.745H82.76
					c0.964,0,1.745-0.781,1.745-1.745S83.724,78.26,82.76,78.26z"/>
			</g>
			<g opacity="0.35">
				<path fill="#B3EFFF" d="M126.269,142.291h3.091c0.838,0.117,1.484,0.829,1.484,1.698c0,0.952-0.77,1.722-1.722,1.722h15.321
					c-0.952,0-1.722-0.77-1.722-1.722c0-0.869,0.646-1.581,1.484-1.698h5.234c0.951,0,1.722-0.771,1.722-1.722
					s-0.771-1.722-1.722-1.722h-23.17c-0.951,0-1.722,0.771-1.722,1.722C124.547,141.52,125.318,142.291,126.269,142.291z"/>
				<path fill="#B3EFFF" d="M150.112,152.569h-8.622c-0.684-0.228-1.18-0.865-1.18-1.627c0-0.95,0.77-1.722,1.722-1.722h-11.336
					c0.952,0,1.722,0.772,1.722,1.722c0,0.761-0.496,1.399-1.18,1.627h-10.786c-0.951,0-1.722,0.771-1.722,1.722
					s0.771,1.722,1.722,1.722h29.66c0.951,0,1.722-0.771,1.722-1.722C151.834,153.34,151.063,152.569,150.112,152.569z"/>
				<path fill="#B3EFFF" d="M161.72,145.718h-46.398c-0.951,0-1.722,0.771-1.722,1.722s0.771,1.722,1.722,1.722h46.398
					c0.951,0,1.722-0.771,1.722-1.722S162.671,145.718,161.72,145.718z"/>
			</g>
		</g>
	</g>
</g>
</svg>
