<?xml version="1.0" encoding="utf-8"?>
<!-- Generator: Adobe Illustrator 17.0.0, SVG Export Plug-In . SVG Version: 6.00 Build 0)  -->
<!DOCTYPE svg PUBLIC "-//W3C//DTD SVG 1.1//EN" "http://www.w3.org/Graphics/SVG/1.1/DTD/svg11.dtd">
<svg version="1.1" id="Layer_1" xmlns="http://www.w3.org/2000/svg" xmlns:xlink="http://www.w3.org/1999/xlink" x="0px" y="0px"
	 width="337px" height="104.618px" viewBox="0 0 337 104.618" enable-background="new 0 0 337 104.618" xml:space="preserve">
<g>
	<g opacity="0.18">
		<path stroke="#000000" stroke-width="4" stroke-miterlimit="10" d="M31.33,20.436l18.719-2.53L41.07,60.15
			c4.047-0.336,7.778-2.107,11.193-5.312c3.415-3.203,6.09-7.166,8.031-11.889c1.938-4.721,2.909-9.359,2.909-13.912
			c0-5.059-1.308-9.189-3.921-12.395c-2.614-3.203-6.535-4.806-11.762-4.806c-10.288,0-18.319,2.7-24.094,8.095
			c-5.776,5.397-8.663,12.944-8.663,22.639c0,3.12,0.294,5.292,0.885,6.513c0.589,1.224,0.886,1.919,0.886,2.087
			c-4.553,0-7.948-0.949-10.181-2.846C4.117,46.427,3,43.287,3,38.901c0-5.395,2.213-10.644,6.64-15.746
			c4.427-5.101,10.096-9.233,17.011-12.395c6.913-3.162,13.828-4.743,20.742-4.743c6.66,0,12.225,1.139,16.695,3.415
			c4.468,2.276,7.779,5.293,9.929,9.043c2.15,3.752,3.225,7.905,3.225,12.458c0,5.482-1.498,10.835-4.49,16.063
			c-2.994,5.229-7.272,9.508-12.837,12.837c-5.565,3.333-11.974,4.996-19.225,4.996h-0.632l-7.716,36.046H14.13L31.33,20.436z"/>
		<path stroke="#000000" stroke-width="4" stroke-miterlimit="10" d="M77.431,97.839C74.943,95.31,73.7,91.515,73.7,86.457
			c0-2.107,0.338-4.848,1.012-8.221l13.533-63.364l18.718-2.529L92.418,80.638c-0.337,1.265-0.506,2.615-0.506,4.047
			c0,1.688,0.399,2.89,1.202,3.605c0.801,0.717,2.128,1.075,3.984,1.075c2.445,0,4.721-1.032,6.83-3.098
			c2.106-2.065,3.624-4.743,4.553-8.032h5.312c-3.12,9.107-7.126,15.285-12.016,18.529c-4.891,3.247-9.739,4.87-14.544,4.87
			C83.186,101.634,79.917,100.369,77.431,97.839z"/>
		<path stroke="#000000" stroke-width="4" stroke-miterlimit="10" d="M111.2,97.839c-2.488-2.529-3.731-6.324-3.731-11.383
			c0-2.107,0.338-4.848,1.012-8.221l8.601-40.598h18.212l-9.106,43.002c-0.337,1.265-0.506,2.615-0.506,4.047
			c0,1.688,0.399,2.89,1.202,3.605c0.801,0.717,2.128,1.075,3.984,1.075c2.445,0,4.721-1.032,6.83-3.098
			c2.106-2.065,3.624-4.743,4.553-8.032h5.312c-3.12,9.107-7.126,15.285-12.016,18.529c-4.891,3.247-9.738,4.87-14.544,4.87
			C116.955,101.634,113.686,100.369,111.2,97.839z M122.52,27.898c-1.941-1.939-2.909-4.301-2.909-7.083s0.968-5.164,2.909-7.146
			c1.938-1.98,4.3-2.972,7.082-2.972c2.782,0,5.164,0.992,7.146,2.972c1.98,1.982,2.972,4.364,2.972,7.146s-0.992,5.144-2.972,7.083
			c-1.982,1.94-4.364,2.909-7.146,2.909C126.82,30.807,124.458,29.838,122.52,27.898z"/>
		<path stroke="#000000" stroke-width="4" stroke-miterlimit="10" d="M176.588,97.523c-2.403-2.739-3.604-6.134-3.604-10.181
			c0-1.771,0.21-3.773,0.632-6.007c0.42-2.233,0.863-4.405,1.328-6.514c0.462-2.106,0.777-3.456,0.949-4.047
			c0.674-2.95,1.305-5.859,1.896-8.726c0.589-2.865,0.886-5.186,0.886-6.957c0-4.3-1.518-6.45-4.553-6.45
			c-2.194,0-4.133,1.075-5.818,3.225c-1.688,2.15-3.035,4.955-4.047,8.411l-8.601,40.599h-18.212l13.406-63.238h18.213l-1.391,6.576
			c4.215-4.721,9.148-7.082,14.797-7.082c4.302,0,7.716,1.182,10.246,3.541c2.528,2.362,3.794,5.944,3.794,10.751
			c0,2.446-0.296,5.165-0.886,8.158c-0.592,2.994-1.434,6.64-2.529,10.94c-0.676,2.614-1.287,5.166-1.834,7.651
			c-0.55,2.488-0.822,4.448-0.822,5.881c0,1.688,0.381,2.994,1.139,3.921c0.758,0.928,2.065,1.391,3.921,1.391
			c2.529,0,4.553-0.906,6.071-2.72c1.518-1.812,3.035-4.616,4.553-8.411h5.312c-3.121,9.277-6.725,15.494-10.814,18.656
			c-4.091,3.161-8.327,4.743-12.71,4.743C182.763,101.634,178.991,100.264,176.588,97.523z"/>
		<path stroke="#000000" stroke-width="4" stroke-miterlimit="10" d="M241.784,97.903c-2.7-2.487-4.047-6.049-4.047-10.688
			c0-2.024,0.252-4.215,0.758-6.576l1.012-4.933c0.337-1.432,0.506-2.991,0.506-4.679c0-4.047-1.518-6.071-4.553-6.071
			c-1.35,0-2.763,0.379-4.236,1.138c-1.477,0.758-3.184,1.94-5.123,3.541l-6.576,31.24h-18.213l18.339-86.004l18.719-2.529
			l-9.486,44.519l24.41-19.224h12.521l-25.295,17.58c1.265-0.336,2.657-0.506,4.174-0.506c4.553,0,8.01,1.391,10.371,4.174
			c2.359,2.782,3.541,6.323,3.541,10.624c0,1.77-0.17,3.373-0.506,4.805l-1.391,6.324c-0.423,1.518-0.632,2.867-0.632,4.047
			c0,3.121,1.644,4.68,4.933,4.68c2.529,0,4.553-0.906,6.071-2.72c1.518-1.812,3.035-4.616,4.553-8.411h5.312
			c-5.229,15.6-12.986,23.399-23.272,23.399C248.444,101.634,244.482,100.39,241.784,97.903z"/>
		<path stroke="#000000" stroke-width="4" stroke-miterlimit="10" d="M275.299,96.574c-3.626-3.203-5.439-8.262-5.439-15.176
			c0-5.818,1.139-12.205,3.415-19.162c2.277-6.956,5.986-12.983,11.131-18.086c5.142-5.101,11.719-7.652,19.73-7.652
			c9.948,0,15.303,5.691,16.062,17.074c1.853-0.421,3.497-1.455,4.933-3.098c1.433-1.644,2.783-3.52,4.047-5.628h4.047
			c-2.276,4.553-4.299,8.116-6.071,10.687c-1.771,2.573-4.091,4.661-6.956,6.26c-0.506,7.926-2.131,14.882-4.87,20.868
			c-2.741,5.988-6.304,10.604-10.687,13.849c-4.386,3.247-9.233,4.87-14.546,4.87C283.856,101.381,278.923,99.78,275.299,96.574z
			 M303.883,82.41c2.697-5.059,4.553-11.298,5.565-18.719c-2.024-0.758-3.035-2.656-3.035-5.691c0-3.288,1.18-5.48,3.541-6.576
			c-0.17-2.698-0.612-4.573-1.327-5.628c-0.718-1.053-1.878-1.581-3.478-1.581c-2.783,0-5.439,2.004-7.968,6.008
			c-2.531,4.005-4.575,8.853-6.135,14.544c-1.56,5.692-2.34,10.688-2.34,14.987c0,4.048,0.463,6.767,1.391,8.158
			c0.927,1.391,2.613,2.087,5.059,2.087C298.274,89.998,301.183,87.468,303.883,82.41z"/>
	</g>
	<g>
		<g>
			<path fill="#036887" stroke="#FFFFFF" stroke-width="4" stroke-miterlimit="10" d="M30.33,18.436l18.719-2.53L40.07,58.15
				c4.047-0.336,7.778-2.107,11.193-5.312c3.415-3.203,6.09-7.166,8.031-11.889c1.938-4.721,2.909-9.359,2.909-13.912
				c0-5.059-1.308-9.189-3.921-12.395c-2.614-3.203-6.535-4.806-11.762-4.806c-10.288,0-18.319,2.7-24.094,8.095
				c-5.776,5.397-8.663,12.944-8.663,22.639c0,3.12,0.294,5.292,0.885,6.513c0.589,1.224,0.886,1.919,0.886,2.087
				c-4.553,0-7.948-0.949-10.181-2.846C3.117,44.427,2,41.287,2,36.901c0-5.395,2.213-10.644,6.64-15.746
				c4.427-5.101,10.096-9.233,17.011-12.395c6.913-3.162,13.828-4.743,20.742-4.743c6.66,0,12.225,1.139,16.695,3.415
				c4.468,2.276,7.779,5.293,9.929,9.043c2.15,3.752,3.225,7.905,3.225,12.458c0,5.482-1.498,10.835-4.49,16.063
				c-2.994,5.229-7.272,9.508-12.837,12.837c-5.565,3.333-11.974,4.996-19.225,4.996h-0.632l-7.716,36.046H13.13L30.33,18.436z"/>
			<path fill="#036887" stroke="#FFFFFF" stroke-width="4" stroke-miterlimit="10" d="M76.431,95.839
				C73.943,93.31,72.7,89.515,72.7,84.457c0-2.107,0.338-4.848,1.012-8.221l13.533-63.364l18.718-2.529L91.418,78.638
				c-0.337,1.265-0.506,2.615-0.506,4.047c0,1.688,0.399,2.89,1.202,3.605c0.801,0.717,2.128,1.075,3.984,1.075
				c2.445,0,4.721-1.032,6.83-3.098c2.106-2.065,3.624-4.743,4.553-8.032h5.312c-3.12,9.107-7.126,15.285-12.016,18.529
				c-4.891,3.247-9.739,4.87-14.544,4.87C82.186,99.634,78.917,98.369,76.431,95.839z"/>
			<path fill="#036887" stroke="#FFFFFF" stroke-width="4" stroke-miterlimit="10" d="M110.2,95.839
				c-2.488-2.529-3.731-6.324-3.731-11.383c0-2.107,0.338-4.848,1.012-8.221l8.601-40.598h18.212l-9.106,43.002
				c-0.337,1.265-0.506,2.615-0.506,4.047c0,1.688,0.399,2.89,1.202,3.605c0.801,0.717,2.128,1.075,3.984,1.075
				c2.445,0,4.721-1.032,6.83-3.098c2.106-2.065,3.624-4.743,4.553-8.032h5.312c-3.12,9.107-7.126,15.285-12.016,18.529
				c-4.891,3.247-9.738,4.87-14.544,4.87C115.955,99.634,112.686,98.369,110.2,95.839z M121.52,25.898
				c-1.941-1.939-2.909-4.301-2.909-7.083s0.968-5.164,2.909-7.146c1.938-1.98,4.3-2.972,7.082-2.972
				c2.782,0,5.164,0.992,7.146,2.972c1.98,1.982,2.972,4.364,2.972,7.146s-0.992,5.144-2.972,7.083
				c-1.982,1.94-4.364,2.909-7.146,2.909C125.82,28.807,123.458,27.838,121.52,25.898z"/>
			<path fill="#036887" stroke="#FFFFFF" stroke-width="4" stroke-miterlimit="10" d="M175.588,95.523
				c-2.403-2.739-3.604-6.134-3.604-10.181c0-1.771,0.21-3.773,0.632-6.007c0.42-2.233,0.863-4.405,1.328-6.514
				c0.462-2.106,0.777-3.456,0.949-4.047c0.674-2.95,1.305-5.859,1.896-8.726c0.589-2.865,0.886-5.186,0.886-6.957
				c0-4.3-1.518-6.45-4.553-6.45c-2.194,0-4.133,1.075-5.818,3.225c-1.688,2.15-3.035,4.955-4.047,8.411l-8.601,40.599h-18.212
				l13.406-63.238h18.213l-1.391,6.576c4.215-4.721,9.148-7.082,14.797-7.082c4.302,0,7.716,1.182,10.246,3.541
				c2.528,2.362,3.794,5.944,3.794,10.751c0,2.446-0.296,5.165-0.886,8.158c-0.592,2.994-1.434,6.64-2.529,10.94
				c-0.676,2.614-1.287,5.166-1.834,7.651c-0.55,2.488-0.822,4.448-0.822,5.881c0,1.688,0.381,2.994,1.139,3.921
				c0.758,0.928,2.065,1.391,3.921,1.391c2.529,0,4.553-0.906,6.071-2.72c1.518-1.812,3.035-4.616,4.553-8.411h5.312
				c-3.121,9.277-6.725,15.494-10.814,18.656c-4.091,3.161-8.327,4.743-12.71,4.743C181.763,99.634,177.991,98.264,175.588,95.523z"
				/>
			<path fill="#036887" stroke="#FFFFFF" stroke-width="4" stroke-miterlimit="10" d="M240.784,95.903
				c-2.7-2.487-4.047-6.049-4.047-10.688c0-2.024,0.252-4.215,0.758-6.576l1.012-4.933c0.337-1.432,0.506-2.991,0.506-4.679
				c0-4.047-1.518-6.071-4.553-6.071c-1.35,0-2.763,0.379-4.236,1.138c-1.477,0.758-3.184,1.94-5.123,3.541l-6.576,31.24h-18.213
				l18.339-86.004l18.719-2.529l-9.486,44.519l24.41-19.224h12.521l-25.295,17.58c1.265-0.336,2.657-0.506,4.174-0.506
				c4.553,0,8.01,1.391,10.371,4.174c2.359,2.782,3.541,6.323,3.541,10.624c0,1.77-0.17,3.373-0.506,4.805l-1.391,6.324
				c-0.423,1.518-0.632,2.867-0.632,4.047c0,3.121,1.644,4.68,4.933,4.68c2.529,0,4.553-0.906,6.071-2.72
				c1.518-1.812,3.035-4.616,4.553-8.411h5.312c-5.229,15.6-12.986,23.399-23.272,23.399
				C247.444,99.634,243.482,98.39,240.784,95.903z"/>
			<path fill="#036887" stroke="#FFFFFF" stroke-width="4" stroke-miterlimit="10" d="M274.299,94.574
				c-3.626-3.203-5.439-8.262-5.439-15.176c0-5.818,1.139-12.205,3.415-19.162c2.277-6.956,5.986-12.983,11.131-18.086
				c5.142-5.101,11.719-7.652,19.73-7.652c9.948,0,15.303,5.691,16.062,17.074c1.853-0.421,3.497-1.455,4.933-3.098
				c1.433-1.644,2.783-3.52,4.047-5.628h4.047c-2.276,4.553-4.299,8.116-6.071,10.687c-1.771,2.573-4.091,4.661-6.956,6.26
				c-0.506,7.926-2.131,14.882-4.87,20.868c-2.741,5.988-6.304,10.604-10.687,13.849c-4.386,3.247-9.233,4.87-14.546,4.87
				C282.856,99.381,277.923,97.78,274.299,94.574z M302.883,80.41c2.697-5.059,4.553-11.298,5.565-18.719
				c-2.024-0.758-3.035-2.656-3.035-5.691c0-3.288,1.18-5.48,3.541-6.576c-0.17-2.698-0.612-4.573-1.327-5.628
				c-0.718-1.053-1.878-1.581-3.478-1.581c-2.783,0-5.439,2.004-7.968,6.008c-2.531,4.005-4.575,8.853-6.135,14.544
				c-1.56,5.692-2.34,10.688-2.34,14.987c0,4.048,0.463,6.767,1.391,8.158c0.927,1.391,2.613,2.087,5.059,2.087
				C297.274,87.998,300.183,85.468,302.883,80.41z"/>
		</g>
	</g>
</g>
</svg>
